<svg id="Слой_1" data-name="Слой 1" xmlns="http://www.w3.org/2000/svg" xmlns:xlink="http://www.w3.org/1999/xlink" viewBox="0 0 2000 2000"><defs><style>.cls-1{fill:url(#linear-gradient);}.cls-2{fill:url(#linear-gradient-2);}.cls-3{fill:url(#Безымянный_градиент_3);}.cls-4{fill:url(#Безымянный_градиент_3-2);}.cls-5{fill:url(#Безымянный_градиент_3-3);}.cls-6{fill:url(#Безымянный_градиент_3-4);}.cls-7{fill:url(#Безымянный_градиент_3-5);}.cls-8{fill:url(#Безымянный_градиент_3-6);}.cls-9{fill:url(#Безымянный_градиент_3-7);}.cls-10{fill:url(#Безымянный_градиент_3-8);}.cls-11{fill:url(#Безымянный_градиент_3-9);}.cls-12{fill:url(#Безымянный_градиент_3-10);}.cls-13{fill:url(#Безымянный_градиент_3-11);}.cls-14{fill:#0b2f89;}</style><linearGradient id="linear-gradient" x1="232.87" y1="974.2" x2="587.75" y2="974.2" gradientUnits="userSpaceOnUse"><stop offset="0" stop-color="#fbd404"/><stop offset="1" stop-color="#fe4309"/></linearGradient><linearGradient id="linear-gradient-2" x1="362.02" y1="996.35" x2="433.3" y2="996.35" gradientTransform="translate(1099.88 185.34) rotate(62.65)" xlink:href="#linear-gradient"/><linearGradient id="Безымянный_градиент_3" x1="210.96" y1="1180.95" x2="169.22" y2="1222.17" gradientUnits="userSpaceOnUse"><stop offset="0" stop-color="#0b2f89"/><stop offset="1" stop-color="#255cfb"/></linearGradient><linearGradient id="Безымянный_градиент_3-2" x1="274.04" y1="1077.65" x2="182.36" y2="1168.19" xlink:href="#Безымянный_градиент_3"/><linearGradient id="Безымянный_градиент_3-3" x1="275.77" y1="1152.9" x2="219.52" y2="1208.44" xlink:href="#Безымянный_градиент_3"/><linearGradient id="Безымянный_градиент_3-4" x1="308.59" y1="1117.42" x2="257.11" y2="1168.26" xlink:href="#Безымянный_градиент_3"/><linearGradient id="Безымянный_градиент_3-5" x1="457.41" y1="1161.77" x2="571.44" y2="1161.77" xlink:href="#Безымянный_градиент_3"/><linearGradient id="Безымянный_градиент_3-6" x1="498.63" y1="1014.54" x2="585.72" y2="1014.54" xlink:href="#Безымянный_градиент_3"/><linearGradient id="Безымянный_градиент_3-7" x1="483.61" y1="1087.04" x2="621.12" y2="1087.04" xlink:href="#Безымянный_градиент_3"/><linearGradient id="Безымянный_градиент_3-8" x1="469.83" y1="1149.57" x2="654.03" y2="1149.57" xlink:href="#Безымянный_градиент_3"/><linearGradient id="Безымянный_градиент_3-9" x1="332.28" y1="939.9" x2="501.59" y2="756.67" xlink:href="#Безымянный_градиент_3"/><linearGradient id="Безымянный_градиент_3-10" x1="359.26" y1="953.73" x2="475" y2="828.47" xlink:href="#Безымянный_градиент_3"/><linearGradient id="Безымянный_градиент_3-11" x1="349.25" y1="955.66" x2="505.7" y2="786.35" xlink:href="#Безымянный_градиент_3"/></defs><path class="cls-1" d="M232.87,1002.44c27.1-7.23,58.6-4.38,80.88,14.07,2.21,1.84,4.51,4.06,6.56,6.1,5.37,5.24,11.28,11.33,16.69,16.25,10.81,9.92,27.8,24.6,42.85,24.82,12.14,0,25.91-7.14,33.86-15.72,28.84-32.51,48.28-73.59,72.83-109.49,26.31-38.43,60.05-72.88,101.21-95.14a246.43,246.43,0,0,0-44.93,43.31c-16.25,20-28.85,42.24-40.83,65.25-12.61,24.21-25.23,54.27-37.15,78.76-8.66,17.93-17.65,36.19-31.58,50.89-6.66,7.19-15.52,14.41-25,18.56-18.26,8.26-38.11,5.83-55-4.35-15.67-9.31-27.71-23.46-38.07-37.92-4.65-6.48-9.12-13.52-13.39-20.13l-1.05-1.63-.47-.74a53.59,53.59,0,0,0-6.5-8.46c-15.27-15.93-39-22.78-60.92-24.43Z"/><ellipse class="cls-2" cx="397.66" cy="996.35" rx="46.62" ry="32.07" transform="translate(-670 891.73) rotate(-62.65)"/><path class="cls-3" d="M225.66,1221.73H170.3a11.81,11.81,0,0,1-10.66-16.9l25.64-53.8C187.08,1181.13,199.79,1203.39,225.66,1221.73Z"/><path class="cls-4" d="M212.84,1206.68c-16.53-16.62-24.24-36.55-24.48-62.11h0l44.93-94.3c2-4.15,4.92-5.4,8.84-5.4,6.26,0,23.59,11,45.58,43,2.23,3.25,4.29,6.17,6.21,8.82-12.38-3-23.71-3.54-33.76-1.47a52.7,52.7,0,0,0-27.68,15.16c-14.53,14.92-19.85,36.08-21.76,51.2C208.74,1177.2,209.54,1193.58,212.84,1206.68Z"/><path class="cls-5" d="M300,1204l-4.54,9a15.89,15.89,0,0,1-14.19,8.75H231.5a123,123,0,0,1-13.94-10.61c-8.21-24.77-6.81-73.73,17.29-98.48,1.06-1.1,2.17-2.15,3.3-3.12a74.26,74.26,0,0,0-1.71,10.72,71.9,71.9,0,0,0,6,35.78C251.82,1176.66,271.19,1192.77,300,1204Z"/><path class="cls-6" d="M326.4,1151.46,301.48,1201c-28.12-10.84-47-26.4-56-46.28-10.65-23.32-4-45.26-2.91-48.6h0c14.11-9.74,32.38-11.5,54.49-5.2,8.69,11.62,14.77,18,23.23,27.26C326.46,1134.93,330.53,1143.26,326.4,1151.46Z"/><path class="cls-7" d="M541,1221.73H505.8a13.47,13.47,0,0,1-12.53-8.56l-33.9-86.61c-1.52-3.88-3.21-9.9-.63-13.17,3-3.83,5.93-7.62,8.79-11.58,28.91.68,54.09,8.46,73,22.61,16.82,12.57,27.88,29.92,30.35,47.58C574.13,1195.18,562.76,1213.89,541,1221.73Z"/><path class="cls-8" d="M498.63,1043.63c3.45-9.5,5.87-18.55,10.18-32.8,5-16.38,7.67-26.36,14.47-34.54,6.48-7.8,21.76-6.3,26,2.89l36.42,78.64c-18-15.15-35.91-19.87-48.68-21C521.1,1035.44,507.68,1039,498.63,1043.63Z"/><path class="cls-9" d="M621.12,1134.27c-12.78-15.37-26.61-27.94-41.32-37.52A138.14,138.14,0,0,0,528.26,1076a121,121,0,0,0-44.65.23c1.89-3.48,3.81-7.2,5.78-11.21,3.11-6.36,5.45-11.65,7.41-16.59,8.35-5.28,22.55-9.86,39.95-8.34,13.63,1.18,33.38,6.66,52.54,25.43Z"/><path class="cls-10" d="M640.55,1221.73H549.24A47,47,0,0,0,567.67,1205c6-9.57,8.21-21.13,6.49-33.4-2.59-18.53-14.12-36.67-31.64-49.78-19-14.19-44-22.16-72.69-23.18,3.89-5.56,7.72-11.53,11.63-18.44a116.82,116.82,0,0,1,46.23-.88c26.22,4.63,64.22,20.3,99.48,68.06l25.6,55.28A13.47,13.47,0,0,1,640.55,1221.73Z"/><path class="cls-11" d="M309.9,903.43a547.55,547.55,0,0,0-45.09,77,5.35,5.35,0,0,1-4.21-8C288.93,923.61,363,810,380.49,795c19.73-16.87,49.44-28.33,83.89,2.78,17.92,16.18,30.5,36.09,37.94,51.09-25.16-26.18-52.16-37.47-80.37-33.6-20.13,2.77-41,13.32-62,31.36C343.27,861,326.42,880.1,309.9,903.43Z"/><path class="cls-12" d="M477.43,912c-3.22,3.8-6.25,7.4-8.88,10.52-1.73,2.07-4.62,1.93-5.82-.48-7.58-15.23-24.08-52.53-55.57-52.53-29.39,0-82.54,53.62-118.8,90.09,21.67-38.13,45.31-68.51,68.83-88.35,24-20.22,47.31-29.29,67.45-26.22C450.63,848.94,469.32,872.69,477.43,912Z"/><path class="cls-13" d="M505.21,879.34c-6.33,7.36-16.15,18.89-25.08,29.43-4.17-18.76-10.78-34-19.69-45.37-9.61-12.28-21.5-19.57-35.3-21.67-21.12-3.22-45.36,6.1-70.07,26.95-12.87,10.86-25.75,24.74-38.3,41.28a452.18,452.18,0,0,0-36.9,58.11c-3.76,3.75-7.25,7.2-10.42,10.27a547.13,547.13,0,0,1,43.14-73c25.66-36.22,65.54-80.69,109.81-86.78,29.66-4.07,58.05,9.45,84.41,40.18h0c.54,1.31,1,2.54,1.45,3.68A16.92,16.92,0,0,1,505.21,879.34Z"/><path class="cls-14" d="M506.81,858.74c-26.36-30.73-54.75-44.25-84.41-40.18-44.27,6.09-84.15,50.56-109.81,86.78a547.13,547.13,0,0,0-43.14,73l-.55.52a5.09,5.09,0,0,1-4.09,1.52,547.55,547.55,0,0,1,45.09-77C326.42,880.1,343.27,861,360,846.65c21-18,41.84-28.59,62-31.36,28.21-3.87,55.21,7.42,80.37,33.6C504.12,852.49,505.61,855.82,506.81,858.74Z"/><path class="cls-14" d="M480.13,908.77c-.92,1.07-1.81,2.14-2.7,3.19-8.11-39.27-26.8-63-52.79-67-20.14-3.07-43.47,6-67.45,26.22-23.52,19.84-47.16,50.22-68.83,88.35-2.95,3-5.79,5.82-8.49,8.51A452.18,452.18,0,0,1,316.77,910c12.55-16.54,25.43-30.42,38.3-41.28,24.71-20.85,48.95-30.17,70.07-26.95,13.8,2.1,25.69,9.39,35.3,21.67C469.35,874.77,476,890,480.13,908.77Z"/><path class="cls-14" d="M301.48,1201l-1.5,3c-28.79-11.18-48.16-27.29-57.55-47.93a71.9,71.9,0,0,1-6-35.78,74.26,74.26,0,0,1,1.71-10.72c-1.13,1-2.24,2-3.3,3.12-24.1,24.75-25.5,73.71-17.29,98.48-1.65-1.45-3.23-2.93-4.72-4.44-3.3-13.1-4.1-29.48-2.12-45.14,1.91-15.12,7.23-36.28,21.76-51.2a52.7,52.7,0,0,1,27.68-15.16c10-2.07,21.38-1.57,33.76,1.47,1.08,1.49,2.11,2.9,3.12,4.24-22.11-6.3-40.38-4.54-54.49,5.2h0c-1.12,3.34-7.74,25.28,2.91,48.6C254.53,1174.58,273.36,1190.14,301.48,1201Z"/><path class="cls-14" d="M231.5,1221.73h-5.84c-25.87-18.34-38.58-40.6-40.38-70.7l3.08-6.46c.24,25.56,7.95,45.49,24.48,62.11,1.49,1.51,3.07,3,4.72,4.44A123,123,0,0,0,231.5,1221.73Z"/><path class="cls-14" d="M627.17,1147.33c-35.26-47.76-73.26-63.43-99.48-68.06a116.82,116.82,0,0,0-46.23.88c.71-1.27,1.43-2.56,2.15-3.89a121,121,0,0,1,44.65-.23,138.14,138.14,0,0,1,51.54,20.72c14.71,9.58,28.54,22.15,41.32,37.52Z"/><path class="cls-14" d="M567.67,1205a47,47,0,0,1-18.43,16.78H541c21.72-7.84,33.09-26.55,29.86-49.73-2.47-17.66-13.53-35-30.35-47.58-18.93-14.15-44.11-21.93-73-22.61.77-1.06,1.54-2.14,2.3-3.22,28.68,1,53.71,9,72.69,23.18,17.52,13.11,29.05,31.25,31.64,49.78C575.88,1183.82,573.63,1195.38,567.67,1205Z"/><path class="cls-14" d="M589.29,1065.55c-19.16-18.77-38.91-24.25-52.54-25.43-17.4-1.52-31.6,3.06-39.95,8.34.64-1.65,1.25-3.24,1.83-4.83,9.05-4.65,22.47-8.19,38.41-6.8,12.77,1.12,30.73,5.84,48.68,21Z"/><path class="cls-14" d="M736.65,1156c-.8,0-1.4-.51-1.8-1.52a3.19,3.19,0,0,1,.09-2.8l58.86-100.2a16.51,16.51,0,0,1,6.33-5.94,16,16,0,0,1,16.43,0,17.94,17.94,0,0,1,6.5,5.94l58.69,100.2a2.88,2.88,0,0,1,.26,2.8,2.06,2.06,0,0,1-2,1.52H869.09q-5.64,0-9.07-5.84l-50.48-85.94a1.5,1.5,0,0,0-1.19-.65,1.11,1.11,0,0,0-1,.65l-50.48,85.94q-3.42,5.83-9.24,5.84Z"/><path class="cls-14" d="M969.36,1065.77q-10.26,0-17.45,9.18t-7.19,22.13v5.18q0,13,7.19,22.14t17.45,9.18h99.25a7.33,7.33,0,0,1,5.9,3.13,11.6,11.6,0,0,1,2.48,7.45v8.2a4.32,4.32,0,0,1-.77,2.6,2.32,2.32,0,0,1-2,1.08H970.73q-17.62,0-30.11-15.77t-12.49-38v-5.18q0-22.23,12.49-38t30.11-15.76h103.53a2.39,2.39,0,0,1,2,1,3.86,3.86,0,0,1,.77,2.49v8.2a12,12,0,0,1-2.48,7.67,7.33,7.33,0,0,1-5.9,3.13Z"/><path class="cls-14" d="M1119.26,1053.89a11.66,11.66,0,0,1,2.48-7.45,7.51,7.51,0,0,1,6.08-3.13h137.57a2.39,2.39,0,0,1,2,1,3.91,3.91,0,0,1,.77,2.49v8.2a12,12,0,0,1-2.48,7.67,7.35,7.35,0,0,1-5.91,3.13h-56.29c-.92,0-1.37.58-1.37,1.73v77.74a11.68,11.68,0,0,1-2.57,7.66,7.59,7.59,0,0,1-6,3.14h-5.3a2.4,2.4,0,0,1-1.88-1.08,4,4,0,0,1-.86-2.6V1067.5c0-1.15-.46-1.73-1.37-1.73h-61.94a2.54,2.54,0,0,1-2.05-1.08,3.69,3.69,0,0,1-.86-2.38Z"/><path class="cls-14" d="M1448,1053.89a11.66,11.66,0,0,1,2.48-7.45,7.36,7.36,0,0,1,5.9-3.13h5.31a2.41,2.41,0,0,1,2,1,3.91,3.91,0,0,1,.77,2.49v55.49q0,22.24-12.49,38T1421.79,1156h-63.66q-17.62,0-30.11-15.77t-12.49-38v-48.37a11.6,11.6,0,0,1,2.48-7.45,7.51,7.51,0,0,1,6.07-3.13h5.14a2.64,2.64,0,0,1,2,1,3.64,3.64,0,0,1,.86,2.49v55.49q0,13,7.18,22.14t17.46,9.18h66.39q10.26,0,17.54-9.18t7.27-22.14Z"/><path class="cls-14" d="M1515.05,1156c-.8,0-1.4-.51-1.8-1.52a3.22,3.22,0,0,1,.08-2.8l58.87-100.2a16.51,16.51,0,0,1,6.33-5.94,16,16,0,0,1,16.42,0,18,18,0,0,1,6.51,5.94l58.69,100.2a2.9,2.9,0,0,1,.26,2.8,2.07,2.07,0,0,1-2,1.52h-11q-5.65,0-9.07-5.84l-50.48-85.94a1.5,1.5,0,0,0-1.2-.65,1.08,1.08,0,0,0-1,.65l-50.48,85.94q-3.43,5.83-9.24,5.84Z"/><path class="cls-14" d="M1725.69,1102.26q0,13,7.18,22.14t17.46,9.18H1833a7.56,7.56,0,0,1,6,3.13,11.39,11.39,0,0,1,2.57,7.45v8.2a4.07,4.07,0,0,1-.86,2.6,2.54,2.54,0,0,1-2.05,1.08H1751.7q-17.64,0-30.12-15.77t-12.49-38v-55.49a3.64,3.64,0,0,1,.85-2.49,2.65,2.65,0,0,1,2.06-1h5.13a7.53,7.53,0,0,1,6.08,3.13,11.66,11.66,0,0,1,2.48,7.45Z"/><path class="cls-14" d="M793,1190.24a3.69,3.69,0,0,1,3.67-3.66H799a1.13,1.13,0,0,1,1.19,1.19v34.13a3.7,3.7,0,0,1-3.74,3.74h-2.24a1.1,1.1,0,0,1-.86-.38,1.25,1.25,0,0,1-.34-.89V1210.6c0-.4-.23-.6-.67-.6H743a.53.53,0,0,0-.6.6v11.3a3.72,3.72,0,0,1-3.74,3.74h-2.25a1.19,1.19,0,0,1-.89-.38,1.17,1.17,0,0,1-.38-.89v-34.13a3.52,3.52,0,0,1,1.09-2.58,3.6,3.6,0,0,1,2.65-1.08h2.25a1.32,1.32,0,0,1,.9.33,1.16,1.16,0,0,1,.37.86v13.77c0,.45.2.68.6.68h49.39a.6.6,0,0,0,.67-.68Z"/><path class="cls-14" d="M892.4,1222a1.83,1.83,0,0,1,.83,1.35,1.88,1.88,0,0,1-.49,1.64,2.06,2.06,0,0,1-1.54.68h-3.29a7.45,7.45,0,0,1-4.56-1.5l-16.24-12.57a7.23,7.23,0,0,0-4.56-1.57H836a.53.53,0,0,0-.6.6v11.3a3.7,3.7,0,0,1-3.74,3.74H829.4a1.23,1.23,0,0,1-.9-.38,1.21,1.21,0,0,1-.38-.89v-17.81a3.72,3.72,0,0,1,3.74-3.75h50.22a3.74,3.74,0,0,0,2.8-1.19,3.82,3.82,0,0,0,1.12-2.85,4.59,4.59,0,0,0-1.27-3,3.69,3.69,0,0,0-2.8-1.38H831.86a3.72,3.72,0,0,1-3.74-3.74v-2.85a1.13,1.13,0,0,1,.38-.86,1.32,1.32,0,0,1,.9-.33h52.15a11,11,0,0,1,8.38,3.85,12,12,0,0,1,3.3,8.87,10.17,10.17,0,0,1-3.63,7.7,12.37,12.37,0,0,1-8.35,3h-3.36a.28.28,0,0,0-.3.22.35.35,0,0,0,.07.38Z"/><path class="cls-14" d="M960,1225.64a.85.85,0,0,1-.79-.53.92.92,0,0,1,0-1L985,1189.42a6.88,6.88,0,0,1,2.77-2.06,8.67,8.67,0,0,1,7.19,0,7.59,7.59,0,0,1,2.84,2.06l25.66,34.72a.83.83,0,0,1,.12,1,.9.9,0,0,1-.86.53h-4.79a4.72,4.72,0,0,1-4-2l-22.07-29.78a.74.74,0,0,0-.53-.23.51.51,0,0,0-.45.23l-22.07,29.78a4.79,4.79,0,0,1-4,2Z"/><path class="cls-14" d="M1061.74,1194.36a10.32,10.32,0,0,0-7.63,3.18,10.51,10.51,0,0,0-3.15,7.67V1207a10.51,10.51,0,0,0,3.15,7.68,10.32,10.32,0,0,0,7.63,3.18h35.92a4,4,0,0,0,4-4,4.71,4.71,0,0,0-1.19-3.07,3.55,3.55,0,0,0-2.77-1.42h-28.51a3.7,3.7,0,0,1-3.74-3.74v-2.25a1.11,1.11,0,0,1,.37-.86,1.32,1.32,0,0,1,.9-.33h30.45a11.63,11.63,0,0,1,11.68,11.67,11.41,11.41,0,0,1-3.41,8.31,11.22,11.22,0,0,1-8.27,3.44h-34.79A18.66,18.66,0,0,1,1043.7,1207v-1.79a18.66,18.66,0,0,1,18.64-18.63h44a1.29,1.29,0,0,1,.89.33,1.13,1.13,0,0,1,.38.86v2.85a3.72,3.72,0,0,1-3.74,3.74Z"/><path class="cls-14" d="M1194.41,1194.36H1151a10.32,10.32,0,0,0-7.63,3.18,10.51,10.51,0,0,0-3.15,7.67V1207a10.51,10.51,0,0,0,3.15,7.68,10.32,10.32,0,0,0,7.63,3.18h43.4a3.71,3.71,0,0,1,3.67,3.66v2.85a1.25,1.25,0,0,1-.34.89,1.1,1.1,0,0,1-.86.38h-45.27A18.64,18.64,0,0,1,1133,1207v-1.79a18.64,18.64,0,0,1,18.63-18.63h45.27a1.15,1.15,0,0,1,1.2,1.19v2.85a3.58,3.58,0,0,1-1.09,2.65A3.49,3.49,0,0,1,1194.41,1194.36Zm-43.47,15a3.44,3.44,0,0,1-2.47-1,3.34,3.34,0,0,1-1-2.51,3.48,3.48,0,0,1,1.12-2.58,3.66,3.66,0,0,1,2.62-1.08h38.46a1.32,1.32,0,0,1,.9.33,1.11,1.11,0,0,1,.37.86v2.25a3.52,3.52,0,0,1-1.12,2.65,3.63,3.63,0,0,1-2.62,1.09Z"/><path class="cls-14" d="M1281.44,1190.24a3.69,3.69,0,0,1,3.66-3.66h2.32a1.13,1.13,0,0,1,1.2,1.19v34.13a3.7,3.7,0,0,1-3.74,3.74h-3.52a6.73,6.73,0,0,1-3.51-1.12q-4-2.55-22.79-15l-23.38-15.42a.48.48,0,0,0-.6,0,.61.61,0,0,0-.3.56v27.24a3.72,3.72,0,0,1-3.74,3.74h-2.25a1.23,1.23,0,0,1-.9-.38,1.2,1.2,0,0,1-.37-.89v-34.13a3.52,3.52,0,0,1,1.09-2.58,3.6,3.6,0,0,1,2.65-1.08h3.37a6.36,6.36,0,0,1,3.67,1.12l46.17,30.38a.54.54,0,0,0,.63,0,.6.6,0,0,0,.34-.56Z"/><path class="cls-14" d="M1332.92,1194.36a10.32,10.32,0,0,0-7.63,3.18,10.51,10.51,0,0,0-3.15,7.67V1207a10.51,10.51,0,0,0,3.15,7.68,10.32,10.32,0,0,0,7.63,3.18h43.4a3.71,3.71,0,0,1,3.67,3.66v2.85a1.25,1.25,0,0,1-.34.89,1.1,1.1,0,0,1-.86.38h-45.27a18.64,18.64,0,0,1-18.63-18.64v-1.79a18.64,18.64,0,0,1,18.63-18.63h45.27a1.15,1.15,0,0,1,1.2,1.19v2.85a3.58,3.58,0,0,1-1.09,2.65,3.49,3.49,0,0,1-2.58,1.09Z"/><path class="cls-14" d="M1454.44,1188.07a7.53,7.53,0,0,1,4.57-1.49h3.37a2,2,0,0,1,1.42.56,1.9,1.9,0,0,1,.6,1.46,1.86,1.86,0,0,1-.83,1.57l-27.61,21.4a1.14,1.14,0,0,0-.52,1V1222a3.57,3.57,0,0,1-1,2.58,3.39,3.39,0,0,1-2.54,1.09h-3.67a1.1,1.1,0,0,1-.86-.38,1.25,1.25,0,0,1-.34-.89v-11.83a1.14,1.14,0,0,0-.52-1l-27.69-21.4a2,2,0,0,1-.15-3,2,2,0,0,1,1.42-.56h3.37a7.48,7.48,0,0,1,4.56,1.49q5,3.9,22.45,17.44a1.09,1.09,0,0,0,1.5,0q2-1.5,10.55-8.12T1454.44,1188.07Z"/></svg>